<?xml version="1.0" standalone="no"?>
<!DOCTYPE svg PUBLIC "-//W3C//DTD SVG 20010904//EN"
 "http://www.w3.org/TR/2001/REC-SVG-20010904/DTD/svg10.dtd">
<svg version="1.0" xmlns="http://www.w3.org/2000/svg"
 width="512.000000pt" height="512.000000pt" viewBox="0 0 512.000000 512.000000"
 preserveAspectRatio="xMidYMid meet">

<g transform="translate(0.000000,512.000000) scale(0.100000,-0.100000)"
fill="#000000" stroke="none">
<path d="M1320 5109 c-616 -69 -1139 -533 -1278 -1135 -12 -49 -26 -133 -31
-186 -15 -133 -15 -2323 0 -2456 45 -414 254 -782 586 -1031 220 -166 461
-261 735 -290 133 -15 2323 -15 2456 0 414 45 782 254 1031 586 166 220 261
461 290 735 15 133 15 2323 0 2456 -76 699 -622 1245 -1321 1321 -117 13
-2354 13 -2468 0z m2539 -413 c435 -104 746 -419 838 -848 17 -77 18 -166 18
-1288 0 -1122 -1 -1211 -18 -1288 -93 -434 -415 -756 -849 -849 -77 -17 -166
-18 -1288 -18 -1122 0 -1211 1 -1288 18 -429 92 -744 403 -848 838 -17 68 -18
165 -22 1244 -4 1244 -3 1270 44 1433 100 346 377 627 721 732 161 49 150 48
1423 46 1107 -2 1200 -3 1269 -20z"/>
<path d="M3892 4149 c-48 -14 -109 -80 -123 -131 -23 -89 12 -182 88 -229 57
-36 154 -34 210 3 62 41 88 90 88 168 0 77 -26 127 -85 166 -43 29 -125 39
-178 23z"/>
<path d="M2375 3925 c-304 -42 -573 -177 -789 -394 -540 -542 -538 -1407 3
-1945 541 -539 1401 -539 1942 0 542 539 542 1409 0 1948 -307 306 -733 450
-1156 391z m346 -400 c536 -94 896 -598 804 -1126 -94 -536 -598 -896 -1126
-804 -536 94 -896 598 -804 1126 94 536 598 896 1126 804z"/>
</g>
</svg>
