<?xml version="1.0" standalone="no"?>
<!DOCTYPE svg PUBLIC "-//W3C//DTD SVG 20010904//EN"
 "http://www.w3.org/TR/2001/REC-SVG-20010904/DTD/svg10.dtd">
<svg version="1.0" xmlns="http://www.w3.org/2000/svg"
 width="512.000000pt" height="512.000000pt" viewBox="0 0 512.000000 512.000000"
 preserveAspectRatio="xMidYMid meet">

<g transform="translate(0.000000,512.000000) scale(0.100000,-0.100000)"
fill="#000000" stroke="none">
<path d="M3520 5104 c-298 -38 -548 -142 -765 -318 -73 -58 -602 -592 -901
-907 -67 -70 -147 -165 -178 -211 -53 -79 -62 -87 -134 -122 -133 -66 -198
-122 -522 -450 -724 -736 -734 -748 -833 -921 -130 -229 -197 -511 -184 -780
31 -669 498 -1214 1160 -1357 146 -31 427 -31 573 0 251 54 459 154 647 310
60 50 612 608 878 888 69 73 152 171 184 217 51 76 64 88 111 107 124 51 197
113 529 449 736 749 744 757 842 926 77 133 136 291 170 460 27 135 24 415 -5
552 -125 579 -557 1012 -1130 1133 -95 20 -359 34 -442 24z m387 -318 c228
-50 406 -147 574 -315 104 -105 156 -176 218 -298 85 -168 116 -308 116 -518
0 -272 -72 -488 -234 -700 -45 -59 -891 -928 -897 -922 -2 2 1 41 6 88 13 110
12 222 -4 339 l-12 95 300 308 c165 170 318 332 339 360 188 250 204 599 41
870 -49 80 -171 202 -251 251 -148 89 -332 129 -500 108 -111 -14 -241 -60
-328 -116 -38 -24 -170 -150 -353 -335 -531 -536 -696 -712 -740 -787 -175
-294 -132 -672 105 -924 101 -108 237 -189 361 -215 17 -4 32 -10 32 -15 0
-14 -91 -118 -177 -203 l-78 -77 -80 41 c-299 152 -514 430 -596 769 -18 77
-23 124 -23 250 0 156 7 209 46 345 28 100 108 257 175 347 61 80 847 891 962
991 163 143 354 235 569 273 98 17 330 12 429 -10z m-115 -637 c241 -50 408
-289 371 -530 -23 -143 -54 -188 -334 -477 -137 -141 -253 -258 -257 -259 -4
-1 -20 26 -37 59 -105 214 -303 428 -520 563 -52 32 -94 62 -93 66 2 4 113
119 248 256 197 199 257 254 304 277 104 52 211 67 318 45z m-877 -937 c101
-71 161 -127 227 -210 266 -335 328 -772 165 -1177 -61 -153 -126 -241 -327
-449 -454 -469 -778 -792 -850 -846 -338 -250 -811 -290 -1192 -99 -120 59
-194 114 -299 218 -172 173 -273 360 -320 596 -21 104 -18 349 4 455 23 107
80 253 136 348 65 111 156 212 586 647 l395 400 -7 -55 c-11 -77 -7 -365 5
-424 l10 -49 -301 -309 c-165 -170 -320 -334 -343 -365 -186 -249 -201 -595
-38 -866 49 -80 171 -202 251 -251 278 -168 625 -148 883 50 69 53 947 951
996 1019 49 67 110 196 131 275 23 87 23 271 -1 360 -42 159 -150 325 -278
430 -59 48 -193 123 -265 148 -18 6 -33 16 -33 22 0 6 54 66 121 135 l121 124
77 -38 c42 -22 108 -62 146 -89z m-431 -485 c119 -63 234 -211 252 -325 l7
-43 -29 6 c-93 21 -197 97 -259 190 -38 58 -75 152 -75 192 0 29 15 26 104
-20z m-924 -499 c0 -19 89 -168 146 -245 115 -154 266 -292 417 -380 43 -26
76 -50 75 -54 -2 -4 -113 -119 -248 -256 -213 -215 -254 -252 -310 -280 -193
-93 -399 -60 -548 87 -161 160 -186 413 -59 600 32 46 506 540 520 540 4 0 7
-5 7 -12z"/>
</g>
</svg>
