<?xml version="1.0" standalone="no"?>
<!DOCTYPE svg PUBLIC "-//W3C//DTD SVG 20010904//EN"
 "http://www.w3.org/TR/2001/REC-SVG-20010904/DTD/svg10.dtd">
<svg version="1.0" xmlns="http://www.w3.org/2000/svg"
 width="512.000000pt" height="512.000000pt" viewBox="0 0 512.000000 512.000000"
 preserveAspectRatio="xMidYMid meet">

<g transform="translate(0.000000,512.000000) scale(0.100000,-0.100000)"
fill="#000000" stroke="none">
<path d="M708 4650 c-203 -35 -369 -157 -464 -343 -67 -131 -65 -78 -62 -1299
l3 -1103 26 -72 c57 -155 170 -283 314 -354 114 -56 187 -69 400 -69 162 0
183 2 213 20 92 56 95 188 5 247 -23 15 -57 19 -228 23 -193 5 -202 6 -256 33
-62 30 -126 93 -158 155 -40 79 -42 125 -39 1187 3 979 4 1022 22 1065 11 25
20 46 22 48 1 2 384 -285 850 -638 608 -458 872 -652 930 -681 61 -31 106 -45
179 -57 90 -15 106 -15 192 0 176 30 79 -37 1616 1123 l338 255 22 -47 22 -48
3 -1020 c3 -1062 1 -1108 -39 -1187 -32 -62 -96 -125 -158 -155 -54 -27 -62
-28 -258 -33 -219 -5 -228 -8 -276 -72 -44 -59 -13 -169 57 -202 46 -22 359
-22 461 -1 232 49 419 230 479 462 23 89 24 2193 1 2291 -30 126 -123 269
-228 347 -74 57 -111 75 -202 106 l-70 24 -1835 1 c-1009 1 -1856 -2 -1882 -6z
m3652 -284 c0 -12 -1629 -1231 -1669 -1249 -65 -30 -197 -31 -262 -1 -25 12
-265 187 -535 391 -269 203 -634 478 -811 612 -178 133 -323 244 -323 247 0 2
810 4 1800 4 990 0 1800 -2 1800 -4z"/>
<path d="M2395 2579 c-421 -61 -754 -360 -871 -780 -37 -135 -44 -345 -16
-481 62 -297 274 -575 537 -703 153 -75 223 -90 415 -90 199 0 292 19 348 69
59 55 60 146 1 205 -41 41 -84 47 -177 25 -98 -23 -244 -23 -332 1 -164 43
-330 171 -419 322 -253 429 -28 986 455 1125 67 19 102 23 234 22 186 0 254
-14 388 -81 109 -53 236 -165 290 -256 73 -121 110 -287 92 -413 -19 -138 -57
-209 -145 -269 -68 -47 -109 -51 -139 -12 -17 24 -22 45 -25 130 -4 121 9 204
54 347 49 152 49 183 4 235 -54 61 -142 66 -203 10 l-26 -24 -73 39 c-168 91
-340 94 -516 9 -124 -61 -230 -202 -260 -347 -49 -235 57 -516 236 -630 148
-93 354 -77 529 41 l38 26 48 -50 c155 -161 382 -136 583 66 96 95 136 169
166 307 27 122 22 323 -10 438 -111 385 -442 660 -866 719 -88 13 -253 12
-340 0z m243 -829 c33 -17 75 -47 93 -67 28 -33 31 -41 25 -82 -3 -25 -9 -77
-13 -114 -6 -67 -7 -68 -62 -119 -69 -63 -160 -108 -218 -108 -150 0 -232 304
-121 446 32 40 113 74 179 74 42 0 70 -7 117 -30z"/>
</g>
</svg>
