<?xml version="1.0" standalone="no"?>
<!DOCTYPE svg PUBLIC "-//W3C//DTD SVG 20010904//EN"
 "http://www.w3.org/TR/2001/REC-SVG-20010904/DTD/svg10.dtd">
<svg version="1.0" xmlns="http://www.w3.org/2000/svg"
 width="750.000000pt" height="500.000000pt" viewBox="0 0 750.000000 500.000000"
 preserveAspectRatio="xMidYMid meet">

<g transform="translate(0.000000,500.000000) scale(0.100000,-0.100000)"
fill="#000000" stroke="none">
<path d="M385 2634 c39 -2 219 -13 400 -24 182 -11 395 -22 475 -26 80 -4 156
-11 170 -15 38 -11 -135 -11 -596 2 -312 9 -462 9 -620 0 -114 -7 -210 -14
-213 -16 -2 -3 -2 -8 1 -11 13 -13 478 -25 1288 -33 476 -5 872 -12 880 -15 8
-2 209 -10 445 -16 237 -7 434 -15 438 -19 23 -22 -1189 -19 -2273 4 -275 6
-495 -3 -495 -20 1 -15 81 -22 385 -34 151 -7 347 -16 435 -21 468 -26 1115
-32 2300 -21 660 6 1342 16 1515 21 173 5 531 16 795 25 264 8 743 22 1065 30
322 9 590 18 595 20 6 2 -118 4 -275 6 -157 1 -310 2 -340 3 -30 0 -316 -2
-635 -6 -342 -4 -570 -4 -555 1 30 11 393 27 950 41 925 24 997 27 979 44 -24
22 -784 37 -1139 22 -86 -4 -125 -2 -107 3 15 5 206 19 425 30 550 29 552 29
147 25 -344 -4 -701 -19 -1470 -64 -758 -44 -969 -52 -1466 -57 -591 -6 -943
5 -1864 62 -591 37 -1026 56 -1355 59 -195 2 -323 2 -285 0z"/>
</g>
</svg>
